<svg fill="currentColor" viewBox="0 0 718 197" fill="none" preserveAspectRatio="none" xmlns="http://www.w3.org/2000/svg">
<path d="M33.9766 122V42.1765H46.153V122H33.9766ZM50.2119 122V42.1765H54.2707V122H50.2119ZM58.3295 122V42.1765H62.3883V122H58.3295ZM74.5648 122V42.1765H78.6236V122H74.5648ZM82.6824 122V42.1765H94.8589V122H82.6824ZM71.453 155.959H61.306L58.1942 165.159H54.6766L66.1766 133.229H66.5824L78.2177 165.159H74.5648L71.453 155.959ZM70.506 153.253L66.4472 141.347L62.253 153.253H70.506Z" />
<path d="M98.9812 122V42.1765H103.04V122H98.9812ZM107.099 122V42.1765H119.275V122H107.099ZM123.334 122V42.1765H135.511V122H123.334ZM147.687 122V42.1765H151.746V122H147.687ZM155.805 122V42.1765H159.864V122H155.805ZM122.793 133.771H140.787V136.882H126.311V146.759H138.081V149.735H126.311V165.159H122.793V133.771Z" />
<path d="M163.986 122V42.1765H168.045V122H163.986ZM172.103 122V42.1765H176.162V122H172.103ZM180.221 122V42.1765H192.398V122H180.221ZM196.456 122V42.1765H208.633V122H196.456ZM220.809 122V42.1765H224.868V122H220.809ZM194.292 136.882H185.498V133.771H207.145V136.882H197.945V165.159H194.292V136.882Z" />
<path d="M228.99 122V42.1765H241.167V122H228.99ZM245.226 122V42.1765H249.284V122H245.226ZM253.343 122V42.1765H265.52V122H253.343ZM277.696 122V42.1765H281.755V122H277.696ZM285.814 122V42.1765H289.873V122H285.814ZM251.855 133.771H271.067V136.882H255.102V147.165H268.361V150.412H255.102V162.047H270.932V165.159H251.855V133.771Z" />
<path d="M293.995 122V42.1765H306.171V122H293.995ZM310.23 122V42.1765H314.289V122H310.23ZM318.348 122V42.1765H322.407V122H318.348ZM326.466 122V42.1765H338.642V122H326.466ZM350.818 122V42.1765H354.877V122H350.818ZM316.724 133.771H325.924C329.532 133.771 332.148 134.582 333.771 136.206C335.485 137.739 336.342 139.949 336.342 142.835C336.342 144.639 335.756 146.353 334.583 147.976C333.411 149.6 331.877 150.682 329.983 151.224L337.289 165.159H333.366L326.33 151.359H320.242V165.159H316.724V133.771ZM326.33 148.247C328.495 148.247 330.118 147.751 331.201 146.759C332.193 145.857 332.689 144.549 332.689 142.835C332.689 141.122 332.193 139.724 331.201 138.641C330.118 137.649 328.495 137.153 326.33 137.153H320.242V148.247H326.33Z" />
<path d="M359 122V42.1765H363.058V122H359ZM375.235 122V42.1765H387.411V122H375.235ZM391.47 122V42.1765H395.529V122H391.47ZM399.588 122V42.1765H411.764V122H399.588ZM415.823 122V42.1765H419.882V122H415.823Z" />
<path d="M424.004 122V42.1765H428.063V122H424.004ZM432.122 122V42.1765H436.181V122H432.122ZM440.239 122V42.1765H452.416V122H440.239ZM464.592 122V42.1765H468.651V122H464.592ZM472.71 122V42.1765H484.886V122H472.71ZM446.598 133.771H453.904C456.52 133.771 458.549 134.131 459.992 134.853C461.526 135.574 462.834 136.657 463.916 138.1C465.99 140.806 467.028 144.639 467.028 149.6C466.847 154.741 465.675 158.62 463.51 161.235C461.345 163.941 457.963 165.249 453.363 165.159H446.598V133.771ZM453.092 162.453C460.037 162.453 463.51 158.259 463.51 149.871C463.51 145.631 462.743 142.384 461.21 140.129C459.586 137.874 457.061 136.747 453.634 136.747H449.981V162.453H453.092Z" />
<path d="M489.009 122V42.1765H501.185V122H489.009ZM505.244 122V42.1765H509.303V122H505.244ZM513.362 122V42.1765H517.421V122H513.362ZM529.597 122V42.1765H533.656V122H529.597ZM537.715 122V42.1765H549.891V122H537.715ZM526.485 155.959H516.338L513.226 165.159H509.709L521.209 133.229H521.615L533.25 165.159H529.597L526.485 155.959ZM525.538 153.253L521.479 141.347L517.285 153.253H525.538Z" />
<path d="M554.013 122V42.1765H566.19V122H554.013ZM570.249 122V42.1765H574.307V122H570.249ZM578.366 122V42.1765H582.425V122H578.366ZM586.484 122V42.1765H598.66V122H586.484ZM610.837 122V42.1765H614.896V122H610.837ZM576.743 133.771H585.943C589.551 133.771 592.166 134.582 593.79 136.206C595.504 137.739 596.36 139.949 596.36 142.835C596.36 144.639 595.774 146.353 594.602 147.976C593.429 149.6 591.896 150.682 590.002 151.224L597.307 165.159H593.384L586.349 151.359H580.26V165.159H576.743V133.771ZM586.349 148.247C588.513 148.247 590.137 147.751 591.219 146.759C592.211 145.857 592.707 144.549 592.707 142.835C592.707 141.122 592.211 139.724 591.219 138.641C590.137 137.649 588.513 137.153 586.349 137.153H580.26V148.247H586.349Z" />
<path d="M619.018 122V42.1765H631.194V122H619.018ZM635.253 122V42.1765H639.312V122H635.253ZM643.371 122V42.1765H647.43V122H643.371ZM651.488 122V42.1765H655.547V122H651.488ZM667.724 122V42.1765H679.9V122H667.724ZM647.294 149.465L644.724 152.171V165.159H641.071V133.771H645.265V134.176C645.085 134.357 644.949 134.582 644.859 134.853C644.769 135.033 644.724 135.439 644.724 136.071V148.247L657.847 133.635C658.659 133.725 659.516 133.771 660.418 133.771H661.771L649.865 147.3L662.583 165.159L658.118 165.294L647.294 149.465Z" />
</svg>
