<svg viewBox="0 0 718 197" fill="none" preserveAspectRatio="none" xmlns="http://www.w3.org/2000/svg">
<path d="M45.5431 121H39.9223C36.4248 121 33.3646 120.344 30.7415 119.033C28.1809 117.659 26.2448 115.91 24.9333 113.787C22.4351 109.727 21.186 105.386 21.186 100.765C21.186 96.1433 22.1853 91.5529 24.1838 86.9937C26.1824 82.4346 28.6805 78.6873 31.6783 75.752C34.6761 72.7542 37.8301 70.4122 41.1401 68.7259C44.4502 66.9772 47.2919 66.1028 49.6651 66.1028C52.0384 66.1028 54.1306 66.6025 55.9417 67.6017C57.7529 68.601 58.6585 69.6627 58.6585 70.7869C58.6585 72.6605 57.7217 73.5973 55.8481 73.5973C55.286 73.5973 54.4429 73.2851 53.3187 72.6605C52.257 72.036 50.9766 71.7237 49.4777 71.7237C48.0413 71.7237 46.0115 72.4419 43.3885 73.8784C40.7654 75.3148 38.2048 77.2509 35.7066 79.6866C33.2085 82.1223 31.085 85.2763 29.3363 89.1484C27.65 93.0206 26.8069 96.9864 26.8069 101.046C26.8069 105.043 27.8062 108.447 29.8047 111.257C31.8657 114.005 35.2382 115.379 39.9223 115.379H45.5431C51.1016 115.379 56.0354 114.661 60.3448 113.224C61.6563 112.787 62.4057 112.569 62.5931 112.569C64.4667 112.569 65.4035 113.506 65.4035 115.379C65.4035 116.753 64.4667 117.752 62.5931 118.377C57.347 120.126 51.6636 121 45.5431 121Z" fill="black"/>
<path d="M68.7263 108.447C68.8512 108.259 69.1322 106.917 69.5694 104.418C70.0691 101.92 70.6311 99.4846 71.2557 97.1113C71.9427 94.6756 73.1293 92.4272 74.8156 90.3663C76.5643 88.3053 78.6565 87.2748 81.0922 87.2748C85.8387 87.2748 89.8358 88.5239 93.0834 91.022C96.3935 93.4577 98.0485 96.6117 98.0485 100.484C98.0485 104.356 98.5794 107.822 99.6411 110.882C100.703 113.88 102.108 115.379 103.857 115.379C105.043 115.379 106.511 115.004 108.26 114.255C111.07 113.131 112.725 112.569 113.225 112.569C115.098 112.569 116.035 113.506 116.035 115.379C116.035 116.753 115.098 117.752 113.225 118.377C109.727 120.126 106.573 121 103.763 121C101.015 121 98.7355 119.845 96.9243 117.534C95.1132 115.161 93.8953 112.537 93.2708 109.665C92.7087 106.792 92.4276 103.7 92.4276 100.39C92.4276 98.2043 91.3659 96.4243 89.2425 95.0503C87.119 93.6139 84.4335 92.8957 81.1859 92.8957C78.5628 92.8957 76.5018 97.0801 75.0029 105.449C74.3784 108.697 73.9412 110.57 73.6914 111.07C72.6297 113.256 69.7256 115.379 64.979 117.44C63.8549 117.94 62.9493 118.19 62.2623 118.19C60.3887 118.19 59.4519 117.253 59.4519 115.379C59.4519 114.193 60.3887 113.224 62.2623 112.475C65.9471 110.976 68.1018 109.633 68.7263 108.447Z" fill="black"/>
<path d="M119.224 115.566C119.162 115.566 118.693 115.816 117.819 116.316C115.571 117.565 113.916 118.19 112.854 118.19C110.98 118.19 110.043 117.253 110.043 115.379C110.043 114.193 110.98 113.224 112.854 112.475C113.166 112.35 113.915 111.975 115.102 111.351C116.289 110.726 116.976 110.352 117.163 110.227C116.913 109.665 116.788 108.821 116.788 107.697C116.788 102.076 118.756 97.2674 122.69 93.2704C126.625 89.2733 130.216 87.2748 133.464 87.2748C136.711 87.2748 139.272 88.0555 141.145 89.6168C143.019 91.1157 143.956 92.9581 143.956 95.144C143.956 97.2674 143.456 99.1098 142.457 100.671C141.458 102.233 139.896 103.763 137.773 105.262C134.838 107.385 130.56 109.852 124.939 112.662C127.437 114.474 130.903 115.379 135.337 115.379C139.771 115.379 144.143 114.661 148.453 113.224C149.764 112.787 150.514 112.569 150.701 112.569C152.575 112.569 153.511 113.506 153.511 115.379C153.511 116.753 152.575 117.752 150.701 118.377C145.455 120.126 140.396 121 135.525 121C128.592 121 123.159 119.189 119.224 115.566ZM122.409 107.697C133.026 102.389 138.335 98.3916 138.335 95.7061C138.335 93.8325 136.774 92.8957 133.651 92.8957C131.777 92.8957 129.435 94.3946 126.625 97.3923C123.814 100.328 122.409 103.763 122.409 107.697Z" fill="black"/>
<path d="M203.948 100.109C201.7 104.918 199.296 108.821 196.735 111.819C194.174 114.817 191.895 116.316 189.896 116.316C185.712 116.316 182.964 113.287 181.652 107.229C180.341 109.477 178.717 111.538 176.781 113.412C172.909 117.222 168.537 119.126 163.666 119.126C161.167 119.126 158.982 118.19 157.108 116.316C155.234 114.442 154.297 112.256 154.297 109.758C154.297 103.638 156.515 98.3604 160.949 93.9261C165.383 89.4919 170.098 87.2748 175.095 87.2748C177.905 87.2748 180.31 87.8056 182.308 88.8674C184.369 89.8666 185.4 90.8971 185.4 91.9588C185.4 93.8325 184.463 94.7693 182.589 94.7693C182.214 94.7693 181.309 94.457 179.872 93.8325C178.436 93.2079 176.843 92.8957 175.095 92.8957C171.847 92.8957 168.506 94.5195 165.071 97.7671C161.636 101.015 159.918 105.012 159.918 109.758C159.918 110.695 160.293 111.569 161.042 112.381C161.792 113.131 162.729 113.506 163.853 113.506C165.04 113.506 166.226 113.287 167.413 112.85C168.662 112.413 169.692 111.913 170.504 111.351C171.316 110.789 172.159 110.039 173.034 109.102C174.345 107.791 175.532 106.323 176.594 104.699L177.53 103.201C178.53 101.764 179.123 100.89 179.31 100.578C179.56 100.203 179.81 99.8281 180.06 99.4533C180.372 99.0786 180.591 98.7976 180.716 98.6102C180.903 98.4228 181.09 98.2355 181.278 98.0481C181.59 97.7358 182.121 97.5797 182.87 97.5797C183.682 97.5797 184.338 97.9857 184.838 98.7976C185.4 99.547 185.93 101.046 186.43 103.294C187.429 108.228 188.585 110.695 189.896 110.695C190.333 110.695 191.052 110.102 192.051 108.915C193.113 107.729 194.299 106.011 195.611 103.763C196.922 101.514 198.203 99.0162 199.452 96.2682C202.512 89.7105 204.417 83.1528 205.166 76.5951C205.166 76.4078 205.229 75.5646 205.354 74.0657C205.541 72.5044 205.76 70.3497 206.009 67.6017C206.259 64.8538 206.509 62.1058 206.759 59.3578C206.946 57.4842 207.883 56.5474 209.569 56.5474C211.443 56.5474 212.38 57.4842 212.38 59.3578C212.38 59.6076 212.317 60.2322 212.192 61.2314C210.444 78.7186 209.569 92.0837 209.569 101.327C209.569 104.325 209.882 106.511 210.506 107.885C217.376 101.015 223.934 97.5797 230.179 97.5797C232.053 97.5797 232.99 98.5165 232.99 100.39C232.99 102.264 231.928 103.201 229.804 103.201C227.743 103.201 225.495 103.856 223.059 105.168C220.686 106.417 218.719 107.791 217.158 109.29C215.659 110.789 214.253 112.194 212.942 113.506C211.693 114.755 210.881 115.379 210.506 115.379C208.195 115.379 206.509 113.849 205.447 110.789C204.448 107.666 203.948 104.106 203.948 100.109Z" fill="black"/>
<path d="M258.37 74.5341C259.369 74.5341 260.4 75.0026 261.461 75.9394C262.523 76.8137 263.054 77.7505 263.054 78.7498C263.054 79.6866 262.617 80.4048 261.742 80.9045C260.931 81.4041 260.025 81.6539 259.026 81.6539C258.026 81.6539 257.183 81.2167 256.496 80.3424C255.872 79.4056 255.559 78.4063 255.559 77.3446C255.559 75.471 256.496 74.5341 258.37 74.5341ZM249.939 109.384C246.441 113.131 242.881 115.816 239.259 117.44C238.135 117.94 237.229 118.19 236.542 118.19C234.669 118.19 233.732 117.253 233.732 115.379C233.732 114.193 234.669 113.224 236.542 112.475C237.541 112.1 238.853 111.351 240.477 110.227C242.163 109.102 243.287 108.259 243.849 107.697C244.411 107.135 245.379 106.105 246.753 104.606C248.19 103.107 249.314 101.983 250.126 101.233C250.938 100.421 252.031 99.6095 253.405 98.7976C254.841 97.9857 256.153 97.5797 257.339 97.5797C259.775 97.5797 261.649 98.4541 262.96 100.203C264.272 101.952 265.052 103.888 265.302 106.011C265.989 111.632 267.082 114.442 268.581 114.442C269.768 114.442 271.298 114.13 273.172 113.506C275.045 112.881 276.076 112.569 276.263 112.569C278.137 112.569 279.073 113.506 279.073 115.379C279.073 116.753 278.137 117.752 276.263 118.377C272.89 119.501 270.143 120.063 268.019 120.063C265.958 120.063 264.272 119.189 262.96 117.44C261.649 115.691 260.868 113.755 260.618 111.632C259.931 106.011 258.838 103.201 257.339 103.201C256.528 103.201 255.591 103.731 254.529 104.793C253.53 105.792 252.718 106.604 252.093 107.229C251.469 107.791 250.751 108.509 249.939 109.384Z" fill="black"/>
<path d="M336.493 106.948C334.057 106.885 331.902 106.448 330.029 105.636C328.28 104.887 326.968 104.044 326.094 103.107C323.908 100.671 322.222 99.4533 321.035 99.4533C319.037 99.4533 317.788 100.39 317.288 102.264C316.039 108.134 314.571 112.506 312.885 115.379C310.699 119.126 307.982 121 304.735 121C300.176 121 296.366 118.627 293.306 113.88C290.558 109.633 288.122 104.387 285.999 98.1418C284.375 93.3953 283.563 90.7098 283.563 90.0852C283.563 88.2116 284.5 87.2748 286.373 87.2748C287.248 87.2748 287.841 87.4621 288.153 87.8369C288.528 88.2116 288.903 88.9298 289.277 89.9915C292.4 99.4221 294.711 105.511 296.21 108.259C298.77 113.006 301.612 115.379 304.735 115.379C307.42 115.379 309.794 110.57 311.855 100.952C313.104 96.2057 316.133 93.8325 320.942 93.8325C322.69 93.8325 324.189 94.2072 325.438 94.9566C326.687 95.7061 327.624 96.5492 328.249 97.486C328.936 98.3604 329.935 99.2035 331.247 100.015C332.558 100.765 334.151 101.202 336.024 101.327C336.399 89.4607 340.458 83.5275 348.203 83.5275C351.763 83.5275 354.511 84.558 356.447 86.619C358.445 88.68 359.445 91.0845 359.445 93.8325C359.445 96.5804 358.57 99.1098 356.821 101.421C354.636 104.356 349.795 106.136 342.301 106.76C343.175 109.259 344.705 111.32 346.891 112.943C349.14 114.567 351.138 115.379 352.887 115.379C357.196 115.379 361.506 114.661 365.815 113.224C367.126 112.787 367.876 112.569 368.063 112.569C369.937 112.569 370.874 113.506 370.874 115.379C370.874 116.753 369.937 117.752 368.063 118.377C362.817 120.126 357.758 121 352.887 121C349.889 121 346.641 119.688 343.144 117.065C339.709 114.442 337.492 111.07 336.493 106.948ZM341.645 101.14C347.141 100.765 350.639 99.7656 352.137 98.1418C353.262 96.8927 353.824 95.4563 353.824 93.8325C353.824 90.7098 351.95 89.1484 348.203 89.1484C344.018 89.1484 341.832 93.1455 341.645 101.14Z" fill="black"/>
<path d="M431.667 118.19C427.67 118.19 424.172 116.535 421.175 113.224C418.177 109.914 416.678 105.855 416.678 101.046C416.678 96.1745 417.677 91.4592 419.676 86.9001C421.674 82.3409 424.172 78.5937 427.17 75.6583C430.168 72.723 433.322 70.4122 436.632 68.7259C439.942 66.9772 442.784 66.1028 445.157 66.1028C447.53 66.1028 449.622 66.6025 451.434 67.6017C453.245 68.601 454.15 69.6627 454.15 70.7869C454.15 72.6605 453.214 73.5973 451.34 73.5973C450.778 73.5973 449.935 73.2851 448.811 72.6605C447.749 72.036 446.469 71.7237 444.97 71.7237C443.533 71.7237 441.503 72.4419 438.88 73.8784C436.257 75.3148 433.697 77.2509 431.198 79.6866C428.7 82.1223 426.577 85.2763 424.828 89.1484C423.142 93.0206 422.299 96.8615 422.299 100.671C422.299 104.418 423.204 107.354 425.016 109.477C426.827 111.538 429.044 112.569 431.667 112.569C437.038 112.569 442.628 111.819 448.436 110.32C454.244 108.759 458.991 106.479 462.675 103.482C464.486 102.045 465.704 101.327 466.329 101.327C468.203 101.327 469.139 102.264 469.139 104.137C469.139 104.762 468.671 105.543 467.734 106.479C466.797 107.416 466.329 108.197 466.329 108.821C466.329 110.695 467.765 112.256 470.638 113.506C473.574 114.755 476.696 115.379 480.006 115.379C483.379 115.379 486.47 114.755 489.281 113.506C492.154 112.256 493.59 110.445 493.59 108.072C493.59 105.699 492.591 103.825 490.592 102.451C488.594 101.077 486.252 100.39 483.566 100.39C482.879 100.39 481.911 100.546 480.662 100.859C479.475 101.171 478.757 101.327 478.507 101.327C476.634 101.327 475.697 100.39 475.697 98.5165C475.697 97.5797 476.509 96.7366 478.133 95.9871C479.757 95.1752 481.568 94.7693 483.566 94.7693C488.438 94.7693 492.247 96.112 494.995 98.7976C497.743 101.483 499.117 104.731 499.117 108.54C499.117 112.35 497.244 115.379 493.496 117.627C489.749 119.876 485.377 121 480.381 121C475.385 121 471.075 120.032 467.453 118.096C463.893 116.097 461.77 113.818 461.083 111.257C452.277 115.879 442.471 118.19 431.667 118.19Z" fill="black"/>
<path d="M509.138 108.447C509.262 108.259 509.543 106.917 509.981 104.418C510.48 101.92 511.042 99.4846 511.667 97.1113C512.354 94.6756 513.541 92.4272 515.227 90.3663C516.975 88.3053 519.068 87.2748 521.503 87.2748C526.25 87.2748 530.247 88.5239 533.495 91.022C536.805 93.4577 538.46 96.6117 538.46 100.484C538.46 104.356 538.991 107.822 540.052 110.882C541.114 113.88 542.519 115.379 544.268 115.379C545.455 115.379 546.922 115.004 548.671 114.255C551.481 113.131 553.136 112.569 553.636 112.569C555.51 112.569 556.447 113.506 556.447 115.379C556.447 116.753 555.51 117.752 553.636 118.377C550.139 120.126 546.985 121 544.174 121C541.426 121 539.147 119.845 537.336 117.534C535.524 115.161 534.307 112.537 533.682 109.665C533.12 106.792 532.839 103.7 532.839 100.39C532.839 98.2043 531.777 96.4243 529.654 95.0503C527.53 93.6139 524.845 92.8957 521.597 92.8957C518.974 92.8957 516.913 97.0801 515.414 105.449C514.79 108.697 514.352 110.57 514.103 111.07C513.041 113.256 510.137 115.379 505.39 117.44C504.266 117.94 503.361 118.19 502.674 118.19C500.8 118.19 499.863 117.253 499.863 115.379C499.863 114.193 500.8 113.224 502.674 112.475C506.358 110.976 508.513 109.633 509.138 108.447Z" fill="black"/>
<path d="M627.273 106.198C629.209 104.699 630.646 103.169 631.583 101.608C632.582 99.9842 633.081 98.6727 633.081 97.6734C633.081 96.6741 632.675 95.7998 631.864 95.0503C631.114 94.2384 630.24 93.8325 629.24 93.8325C628.304 93.8325 627.461 94.2384 626.711 95.0503C625.962 95.8622 625.587 97.3299 625.587 99.4533C625.587 101.577 626.149 103.825 627.273 106.198ZM565.912 100.671C564.476 103.919 562.852 107.385 561.041 111.07C559.229 114.692 557.606 116.784 556.169 117.346C554.795 117.909 553.827 118.19 553.265 118.19C551.391 118.19 550.455 117.253 550.455 115.379C550.455 114.193 551.391 113.224 553.265 112.475C554.826 111.913 556.919 107.947 559.542 100.578C560.478 97.9544 561.821 95.55 563.57 93.3641C565.319 91.1782 567.286 90.0852 569.472 90.0852C571.658 90.0852 573.75 91.1782 575.749 93.3641C577.747 95.55 578.746 99.4533 578.746 105.074C578.746 110.695 579.683 113.506 581.557 113.506C582.056 113.506 582.462 113.193 582.775 112.569C583.149 111.882 583.43 111.32 583.618 110.882C583.805 110.445 583.993 109.883 584.18 109.196C584.43 108.447 584.617 107.885 584.742 107.51C585.054 106.073 585.304 105.074 585.491 104.512C587.74 95.5187 591.425 91.022 596.546 91.022C599.231 91.022 601.729 92.1774 604.04 94.4882C606.414 96.7366 607.944 99.8281 608.631 103.763C608.88 105.386 609.724 106.792 611.16 107.978C612.596 109.165 614.408 109.758 616.594 109.758C618.842 109.758 620.747 109.477 622.308 108.915C620.747 105.668 619.966 102.264 619.966 98.7039C619.966 95.0815 620.84 92.4272 622.589 90.741C624.338 89.0547 626.524 88.2116 629.147 88.2116C631.77 88.2116 634.018 89.1484 635.892 91.022C637.765 92.8957 638.702 94.9879 638.702 97.2987C638.702 99.547 637.984 101.858 636.548 104.231C635.174 106.604 633.144 108.79 630.458 110.789C633.081 113.224 636.017 114.442 639.264 114.442C642.574 114.442 645.166 114.13 647.04 113.506C648.914 112.881 649.944 112.569 650.131 112.569C652.005 112.569 652.942 113.506 652.942 115.379C652.942 116.753 652.005 117.752 650.131 118.377C646.759 119.501 643.261 120.063 639.639 120.063C633.956 120.063 629.24 117.94 625.493 113.693C622.745 114.817 619.81 115.379 616.687 115.379C613.564 115.379 610.66 114.442 607.975 112.569C605.289 110.633 603.697 108.259 603.197 105.449C602.76 102.576 601.917 100.39 600.668 98.8912C599.419 97.3923 598.045 96.6429 596.546 96.6429C594.422 96.6429 592.549 99.7968 590.925 106.105C589.801 111.039 588.489 114.442 586.99 116.316C585.491 118.19 583.524 119.126 581.088 119.126C578.653 119.126 576.717 117.815 575.28 115.192C573.844 112.569 573.125 109.415 573.125 105.73C573.125 102.045 572.751 99.4533 572.001 97.9544C571.252 96.4555 570.378 95.7061 569.378 95.7061C568.504 95.7061 567.348 97.3611 565.912 100.671Z" fill="black"/>
<path d="M656.246 108.447C656.371 108.259 656.652 106.917 657.089 104.418C657.589 101.92 658.151 99.4846 658.776 97.1113C659.463 94.6756 660.649 92.4272 662.336 90.3663C664.084 88.3053 666.176 87.2748 668.612 87.2748C673.359 87.2748 677.356 88.5239 680.603 91.022C683.913 93.4577 685.568 96.6117 685.568 100.484C685.568 104.356 686.099 107.822 687.161 110.882C688.223 113.88 689.628 115.379 691.377 115.379C692.563 115.379 694.031 115.004 695.78 114.255C698.59 113.131 700.245 112.569 700.745 112.569C702.618 112.569 703.555 113.506 703.555 115.379C703.555 116.753 702.618 117.752 700.745 118.377C697.247 120.126 694.093 121 691.283 121C688.535 121 686.256 119.845 684.444 117.534C682.633 115.161 681.415 112.537 680.791 109.665C680.229 106.792 679.948 103.7 679.948 100.39C679.948 98.2043 678.886 96.4243 676.762 95.0503C674.639 93.6139 671.953 92.8957 668.706 92.8957C666.083 92.8957 664.022 97.0801 662.523 105.449C661.898 108.697 661.461 110.57 661.211 111.07C660.15 113.256 657.246 115.379 652.499 117.44C651.375 117.94 650.469 118.19 649.782 118.19C647.909 118.19 646.972 117.253 646.972 115.379C646.972 114.193 647.909 113.224 649.782 112.475C653.467 110.976 655.622 109.633 656.246 108.447Z" fill="black"/>
</svg>
