<svg id="Layer_1" data-name="Layer 1" xmlns="http://www.w3.org/2000/svg" viewBox="0 0 200 200"><defs><style>.cls-1{fill:#d8b7cb;}.cls-2{fill:#a3d5a7;}.cls-3{fill:#588eca;}.cls-4{fill:#588dca;}.cls-5{fill:#c3e2c3;}.cls-6{fill:#e5d5c0;}.cls-7{fill:#789ed3;}.cls-8{fill:#b0add4;}.cls-9{fill:#6fafdf;}.cls-10{fill:#88c7bd;}.cls-11{fill:#b6afd4;}.cls-12{fill:#94a6d5;}.cls-13{fill:#97a7d5;}.cls-14{fill:#a4d2ce;}.cls-15{fill:#60a7d9;}.cls-16{fill:#8bc3d8;}.cls-17{fill:#74b9cd;}.cls-18{fill:#d8edda;}.cls-19{fill:#c6e4c8;}.cls-20{fill:#a7c3e6;}.cls-21{fill:#cae6cb;}.cls-22{fill:#b8cae8;}.cls-23{fill:#b3c5e5;}.cls-24{fill:#f5eff3;}.cls-25{fill:#f6f2f5;}.cls-26{fill:#fdfcfc;}</style></defs><path class="cls-1" d="M127.39,190.75a16.3,16.3,0,0,1-4.87,1.86,58.21,58.21,0,0,1-8.38,1.83c-3.67.42-7.27,1.33-11,1.47-2.27.09-4.55.35-6.83.29a84.06,84.06,0,0,1-11.06-.86c-1.66-.27-3.43-.23-5.12-.65-.77-.19-1.54-.2-1.77-1.19,0-.17-.4-.33-.63-.38-2.38-.5-4.42-2.05-6.9-2.24a.94.94,0,0,1-.53-.23c-1.47-1.54-3.58-2-5.34-3.07a40.66,40.66,0,0,0-4.44-2.33c-.3-.13-.73-.15-.83-.46-.62-1.86-2.41-2.26-3.83-3.07a22.74,22.74,0,0,1-4.46-3.12c-.42-.39-.77-.94-1.5-.58-.34.17-.61-.05-.87-.26A18.46,18.46,0,0,1,45,173.84c.58-.69.28-1.31-.12-2-.23-.37-.58-.81-.13-1.23a1,1,0,0,1,1.11-.07c1.55.76,1.83-.25,2-1.39.74-6.1,1.45-12.2,1.65-18.34a74,74,0,0,1,4.23-22c.45-1.3.66-2.67,1.12-4,.33-.9.46-1.95,1.5-2.42,2,3.48,4.35,6.76,6.57,10.1a54.74,54.74,0,0,0,10.48,11.28,72.55,72.55,0,0,0,8.89,6.63,15.47,15.47,0,0,0,3.83,1.41,4.71,4.71,0,0,1,1.27.46c0,.57-.73.1-.88.68a23,23,0,0,0,7,2,10.55,10.55,0,0,1,1.93.27,13.55,13.55,0,0,0,7.65.21,2.44,2.44,0,0,1,.39-.05c1.53-.1,3.08.21,4.56-.75a2.62,2.62,0,0,1,3,.13c.44.32,1,.18,1.53.21.57,1.53.29,3.21.81,4.76s.7,3.12,1.76,4.32c3.41,3.84,5.32,8.52,7.25,13.14C124.14,181.67,125.7,186.24,127.39,190.75Z"/><path class="cls-2" d="M135.62,25.06c-.31,0-.65,0-.84-.37s-.83-.07-1.12-.43h0c-5.42-.2-10.83-1-16.26-.5-.36.21-.39.66-.66.94-1.29.41-2.65-.13-3.93.3a35.18,35.18,0,0,0-13.74,3,4.16,4.16,0,0,1-1.08.44c-3.51.47-6.34,2.38-9.2,4.25A4.46,4.46,0,0,1,86,33.6a5.42,5.42,0,0,0-3.79,2.06c-.14.87-1,.8-1.52,1.2l0,0a2.46,2.46,0,0,1-3.55.94c-2.86-1.48-6-1.4-9-2.15-6.46-1.61-12.51.45-18.72,1.06-2.68.27-5.31,1.17-7.6-1a10.54,10.54,0,0,1,2.69-2.8,2.54,2.54,0,0,0,2.36-2.34,1.68,1.68,0,0,1,.8-.78c.75.65,1.06-.17,1.48-.48,3.77-2.81,7.5-5.68,11.42-8.28.7-.46,1.5-.84,1.68-1.8a58.36,58.36,0,0,1,8.07-4.31c2.14-1,4.31-1.85,6.46-2.78C81.24,10.16,86,8.87,90.59,7.39a57,57,0,0,1,9.92-2,18.66,18.66,0,0,0,2.69-.46,26.3,26.3,0,0,1,8.34-.66,23.64,23.64,0,0,0,2.83-.43c3.24-.28,6.36.52,9.51.89,3.74.44,7.44,1.19,11.15,1.88,1.33.25,2.93.34,3.87,1.14a7.65,7.65,0,0,0,3.66,1.49,18.09,18.09,0,0,1,3.13,1c2.67,1.06,5.08,2.61,7.64,3.85,2,1,3.61,2.56,5.77,3.18.25.49-.25.62-.44.57-1.74-.43-3.48.93-5.21,0-.13-.08-.37,0-.5.25,1,1,2.6,1.1,3.47,2.3a3.75,3.75,0,0,0,2.18,2.79c-.39.54-.73.19-1.07.13-1.09-.2-1.29,0-1.09,1.19,0,.25.19.69,0,.69-1.19-.07-1.81,1.16-2.9,1.22-.37,0-.81-.21-.94.32s.28.65.66.79.56.29,1,.51c-2,.51-3.71.54-5.26-.73a1.77,1.77,0,0,0-1.87-.07,4,4,0,0,1-2.67,0,11.35,11.35,0,0,0-4.73-.69c-.58.09-.88-.52-1.36-.69C137.58,25.15,136.52,25.39,135.62,25.06Z"/><path class="cls-3" d="M62.16,56c-1.51,2.48-3.15,4.89-4.5,7.45a74.17,74.17,0,0,0-5,11.83c-.82,2.61-1.17,5.34-2,7.91-.53,1.69-.21,3.49-1,5.06-.46,1.4-.16,2.83-.19,4.24A3.74,3.74,0,0,1,48.52,95a86.25,86.25,0,0,0-14.9,26.22c-1.77,4.84-3.18,9.81-5,14.62-.49,1.27-1,2.38-2.89,1.23a10.81,10.81,0,0,1,.43,2.39c0,.84.09,1.83-.87,2.2s-1.5-.46-2-1.17c-1.41-2.82-1.89-5.93-2.65-8.95-.66-2.63-1.17-5.31-1.68-8-.12-.65-.21-1.07-1-1.2s-.75-.73-.81-1.31c.71-.17.65.72,1.25.63.41-1.08-.35-2.1-.24-3.18a9.47,9.47,0,0,1-1.06-5.08,14.36,14.36,0,0,0-.68-4.36c-.17-.61-.68-1.23,0-1.82-.75-.76-.48-1.62-.26-2.48.6-2,.26-4.15.39-6.22.33-4.93.63-9.84,1.45-14.74a112.47,112.47,0,0,1,5.72-20.65c4-3.13,8.1-5.93,13.32-6.58a7.38,7.38,0,0,1,4,.45c4,1.66,8,1.83,11.67-1a15.41,15.41,0,0,1,8.49-3.2c.76-.05,1.93-.46,2.16.94l-.83,1.1C62.2,55.16,62.57,55.73,62.16,56Z"/><path class="cls-4" d="M132.87,148.74a37.34,37.34,0,0,0,5.45-3c3.26-2.54,7-4.56,9.64-7.8a23.72,23.72,0,0,1,2.43-2.26c.24-.22.58-.61.8-.41,1.05.94,1.52-.21,2.1-.59a13.41,13.41,0,0,0,2-1.88c.63-.65,1.18-1.42,2.3-1,.48.21.87-.13,1.2-.47a2.56,2.56,0,0,1,1.28-.88c.57.79-.94,1-.42,1.92a4.71,4.71,0,0,1,2.61-.24c.71.2,1.69-.53,2.37-1.18.42-.4.89-1,1.48-.46a1.23,1.23,0,0,1,.1,2,.71.71,0,0,0-.2.91c.8.28,1.14-.74,2-.71.22.77.44,1.6,1.68,1.54.67,0-.05.72.11,1.09l-.08.07.05-.09c1-.57,1.32-1.71,2-2.51.52-.56,1-1,1.79-.6a1.52,1.52,0,0,1,.85,1.78c-.32,1-.19,2.06-.69,3a8.44,8.44,0,0,0-.94,2.35c1.08.48,1.53-.2,2-.87.87-1.12,1.34-2.51,2.36-3.52a1.2,1.2,0,0,1,1-.41c1.13,0,1.66.36,1.28,1.31-.47,1.2.78,2.29-.07,3.45-.28.39.29.63.62.81.57.32.72.72.35,1.28a.71.71,0,0,0-.08.18c-.33,1.55-1.33,2.92-1,4.65a3.45,3.45,0,0,1-.37,1.85c1.35-.62.63-2.72,2.35-3,.34.42.14.85,0,1.27-1.11,3.63-2.37,7.19-4.89,10.15a6.76,6.76,0,0,0-1.32,2.38c-.6,1.86-2,3.33-2.78,5.1-.34.74-.87,1.57-2,.91-.11-.07-.38,0-.51.14-.29.24.78,1.09-.48,1-.56,0-.84.82-1.5.81-2.89,3.6-5.82,7.15-10.1,9.2-1.87.9-2.65.75-3.92-.82a30.39,30.39,0,0,1-2.85-3.73,12.83,12.83,0,0,0-4.67-4.38c-6.1-3.78-10.77-9-15.21-14.55C129.74,150.75,130.47,149.21,132.87,148.74Z"/><path class="cls-5" d="M93.61,114.17a6.65,6.65,0,0,1-2-3.51c-.94-2.83-1.77-5.7-2.6-8.57a6.76,6.76,0,0,1-.14-1.75,4.19,4.19,0,0,0-.46-2.26c-.55-.87-.28-1.9-.28-2.87s1.37-.52,1.38-1.43c-1.38-.54-1.34-.54-1.42-2a11.93,11.93,0,0,1,.49-3.27,21.92,21.92,0,0,0,.73-4c.05-1.41.82-2.6,1.27-3.88.2-.58.71-.7,1.36-.47-.77-3,1.14-5,2.58-7.11,1-1.47,1.94-3,3-4.47.62-.3.89-.93,1.35-1.39.68-.69,1.49-1.22,2.43-.62a2.87,2.87,0,0,0,3.29-.09c1.18-.7,2.34-.87,3.36.28.69.79,1.33.41,2.08,0,2-1,3.52-.47,3.47,1.63-.09,3.44,2.18,4.71,4.5,6.16a9,9,0,0,1,1.43,1c.74.68,1.15,1.43.49,2.4-.93,3.32-2.35,6.49-3.12,9.86-.77-.38-1.34.07-2,.38-3.77,1.79-6.31,4.94-9,7.94-3.63,4-6.16,8.69-8.5,13.51a1.79,1.79,0,0,0-.32.91C97.3,113.21,95.13,113.38,93.61,114.17Z"/><path class="cls-6" d="M119.92,78a2.29,2.29,0,0,0-1.27-2.42c-1.56-.93-3-2.06-4.55-3a1.83,1.83,0,0,1-.87-1.8,7.32,7.32,0,0,0-.3-2.9c-.52-1.27-1.16-1.72-2.18-.91-1.5,1.21-2.59,1.4-3.69-.37-.26-.42-.8-.39-1.25-.17s-1.07.5-1.58.79c-1,.58-2,.94-3-.17-.55-.63-1.13-.39-1.7.12s-1,1.4-2,1.42c.33-.64.64-1.29,1-1.92.21-.4.39-.83,1-.65.38.11.59-.15.55-.57-.09-1.13.68-1.61,1.57-1.9s2-.37,1.7-1.93c-.07-.38.79-1,1.24-1.42s.83-1.06,1.64-.69a.66.66,0,0,0,.53-.15c.45-.32-.78-.65,0-1.06.56-.28.75.61,1.21.3a6.85,6.85,0,0,0,1-.91,17.69,17.69,0,0,1,5.18-3.4c3.17-1.57,6.58-2.48,9.74-4A32,32,0,0,1,131,48.3c.35-.07,1.56-.72,1,.76-.1.29.32.32.57.32a38.56,38.56,0,0,0,5.59-.29,3.07,3.07,0,0,1,2.91.7,4,4,0,0,0,2,1.11,4.94,4.94,0,0,1,2.12,1.33c.15.13.41.35.38.42-.62,1.28.67,2.24.57,3.42,0,.25-.14.56,0,.75.28.52.7,1,.21,1.59s-1,.07-1.44.07c-.19,0-.46.05-.32.31.46.87-.11.81-.67.81-5.15,0-9.41,2.16-13.22,5.47-.93.81-1.75,2-3.25,1.86-.18,0-.49.28-.57.49a6.14,6.14,0,0,1-3.31,3.76c-.28.12-.1.39-.1.63,0,.94-.07,2-1.41,2-.34,0-.36.19-.34.52C121.82,75.89,121.34,76.84,119.92,78Z"/><path class="cls-7" d="M23.29,140.48c.7.24,1.21,1.34,2,.76s.38-1.48.3-2.22a16.77,16.77,0,0,0-.66-2.45.45.45,0,0,1,.29-.62.53.53,0,0,1,.51.19c1.68,1.49,1.67,1.49,2.44-.72,1.94-5.6,3.79-11.23,5.86-16.79a88.6,88.6,0,0,1,10-18.76,25.54,25.54,0,0,1,4.34-5.52,2.2,2.2,0,0,0,.8-1.91c0-1,0-2,0-2.94,0-.46,0-.93.41-1.24-.07,3.11,0,6.21-.19,9.33a27,27,0,0,0,.72,6.72c.14.76.2,1.54.3,2.31a2.65,2.65,0,0,1-.37,2.42c-2.45,2.24-2.46,5.53-3.69,8.27-2.75,6.14-4.85,12.55-7,18.92a74.16,74.16,0,0,0-2.07,9.37,27.45,27.45,0,0,1-3.1,8.22c-.73,1.29-1.69,2.36-3.44,2a15.37,15.37,0,0,1-2.1-3.18c-.7-1.22-1.62-2.33-2.27-3.6-.92-1.78-2.06-3.41-2.51-5.45C23.68,142.53,22.89,141.64,23.29,140.48Z"/><path class="cls-4" d="M135.64,98h7.13c-.18,1.49-1.42,1-2.11,1.39a2.25,2.25,0,0,0,2,.7c1.18,0,2.36,0,3.53,0s1.42.38,1.45,1.4l-3,.64c1.85-.15,3.41.89,5.1,1.29-.29.44-1.12,0-1.37.67,1.34.85,1.36,1.13.17,2.07-.17.13-.81.13-.29.59s.07.69-.29.93-1,.26-.75.93a1.17,1.17,0,0,0,1.35.87c.52-.07,1-.19,1.54-.26s.77-.08,1.24-.12c-.48,1.69-1.86,2.18-3.29,2.9,1.38.33,2.53,1.05,3.92.42.17,1-1.27.77-1,1.72.09.38.65.94-.2,1.31-.25.12.14.51.35.51,1.74,0,.48.89.21,1-.92.46-1.94.75-2.91,1.12-.48.18-1,.2-.42,1,.4.53-.11,1.29-.77,1.55-2.16.84-4.14,2-6.33,2.83-2.51.94-5.07,1.65-7.61,2.47-2.39.32-4.72,1.12-7.16,1a9.08,9.08,0,0,0-2.85.13,3.76,3.76,0,0,1-1.53,0,3.28,3.28,0,0,1-1.36-.61.45.45,0,0,1,0-.54c.17-.28.82-.39.69-.58-1-1.49.19-2.46.8-3.52A45.45,45.45,0,0,0,127.7,106a12.82,12.82,0,0,1,2.35-6c.78-1,1.65-2.1,3.23-1.55a1,1,0,0,0,.82-.37A1.77,1.77,0,0,1,135.64,98Z"/><path class="cls-8" d="M56.29,122.43c-1.68,4-2.44,8.36-3.91,12.46a66.73,66.73,0,0,0-1.91,8.74,1.9,1.9,0,0,0,0,.58c.21,2.81-.34,5.59-.51,8.37-.13,2.25-.21,4.53-.55,6.78-.29,1.85-.33,3.75-.53,5.62a37.45,37.45,0,0,1-.77,5.58c-.38,1.49-.73,1.62-2,.73-.36-.26-.64-.67-1.33-.44.08.61.63.88,1,1.28,1,1.13.91,1.33-.78,1.71a24.22,24.22,0,0,1-5.29-5.11c-.86-1.12-1.83-2.1-2.77-3.13a1.84,1.84,0,0,1-.65-1.16c.6-1,.68-2.36,2.07-2.88.54-.21.51-1,.69-1.56,1.71-5.51,2.33-11.24,3.17-16.91a80.75,80.75,0,0,1,5.24-18.81c.89-2.15,2-4.28,1.5-6.76-.08-.39,0-1,.38-1,1.71-.4,2-2.15,3.08-3.12A76.51,76.51,0,0,0,56.29,122.43Z"/><path class="cls-9" d="M133.28,98.44c-2.56.42-3.42,2.5-4.31,4.5-.69,1.56-.6,3.32-1,4.93-1.4,5.29-3.11,10.46-6.27,15-1.13,1.64-1,1.81.83,2.57-.46,1-1.67.07-2.18.85-.7.7-1.53.44-2.33.32s-1.61-.46-2.4.07c-.19,0-.42.06-.57,0-2.27-1.3-4.82-1.74-7.29-2.42-1.23-.68-.81-1.66-.34-2.52,1.18-2.17,2.31-4.37,3.48-6.54a153.32,153.32,0,0,0,7.9-17c.29-.73.63-1.43,1-2.14.53-1.08,1.21-1.32,2.09-.35l.46.44c.33.29.82,0,1.14.33l3.41.86.17.08c.7.41,1-.35,1.57-.5.91-.26.59.8,1.2,1s1.12-.48,1.57-.41A2.35,2.35,0,0,1,133.28,98.44Z"/><path class="cls-7" d="M132.87,148.74c-.19.3-.55.32-.82.47-1.36.76-1.57,1.87-.54,3,2.39,2.74,4.69,5.55,7.27,8.14a44,44,0,0,0,7.1,5.77c2.6,1.68,5,3.5,6.42,6.35a17.34,17.34,0,0,0,2.47,3,1.59,1.59,0,0,0,2.09.47,24,24,0,0,0,5.48-3.63c2-1.74,3.25-4.17,5.6-5.52.57,1.38.84,2.59-1.06,3.28-.46.17-.76,1-1.22,1.45-2.76,2.77-6.21,4.54-9.47,6.57-.22.13-.43.27-.64.41-2.3.24-4,2-6.08,2.63-.3.1-.57.3-.91.17l-1.93.41c-.79-.27-.93-1-1.28-1.65a31.47,31.47,0,0,0-7-8.54,74,74,0,0,1-15-16.33c-1-1.56-.81-2.19.89-2.93a13.3,13.3,0,0,1,5.76-2.85.8.8,0,0,0,.47-.29C131.14,148.25,132,148.46,132.87,148.74Z"/><path class="cls-10" d="M41.8,35.67a2.4,2.4,0,0,0,1.62-.57c.43.45-.18.68-.18,1.2a9.57,9.57,0,0,0,4,.19c4.11-.89,8.34-1.08,12.46-2,1.25-.27,2.6.09,3.86-.4a1.4,1.4,0,0,1,1.12.25,9.33,9.33,0,0,0,4.93.9,11.69,11.69,0,0,1,6.56,1.55,3.68,3.68,0,0,0,4.48,0A.84.84,0,0,1,80.48,38c-.49.44-1,1.07-1.64.83-.77-.28-.76-.06-.65.53.07.38-.2.79-.43.77-1.6-.16-1.69,1.55-2.72,2.12-.71.38-1.12,1.27-2.1,1.26a.58.58,0,0,0-.56.47c-.26,1-1.12.89-1.81,1.1-1,.68-2,.32-3,0A17.87,17.87,0,0,0,58.85,45a45.67,45.67,0,0,1-9.13,1,6.13,6.13,0,0,1-4.1-.92,2.82,2.82,0,0,0-2.28-.18c-2.45.38-4.88.86-7.32,1.33-.77.14-1.55.37-2.14-.41A57.36,57.36,0,0,1,39.75,38C40.44,37.2,40.8,36.14,41.8,35.67Z"/><path class="cls-11" d="M127.39,190.75a1.56,1.56,0,0,1-.88-1c-.48-1.76-1.45-3.31-2-5.05a96.19,96.19,0,0,0-5.89-14.26,18.58,18.58,0,0,0-3.06-4.74c-1.89-2-2.49-4.52-3.08-7.07a7.51,7.51,0,0,1,0-3.62,5.42,5.42,0,0,0,2.75-.64,6,6,0,0,1,3.13-.55,2.88,2.88,0,0,0,.46,3.16,94.58,94.58,0,0,1,7.47,11.49c2.17,4.07,5.36,7.4,8.29,10.91a57.58,57.58,0,0,1,5,6.25c-1.32,1.2-3.1,1.46-4.63,2.24A28.68,28.68,0,0,1,127.39,190.75Z"/><path class="cls-12" d="M52.38,113.36c0,1.28-1,2.08-1.44,3.14,0,.11-.21.24-.3.23-2-.33-1.11,1-1,1.83a9.34,9.34,0,0,1-1.13,4.51A89.41,89.41,0,0,0,44,136.38c-.86,3.61-1.22,7.29-1.88,10.93-.72,4-1,8.13-2.36,12a3.61,3.61,0,0,0-.31,1.12c0,1.43-.64,2.22-2,2.06-.54.75.63,1.13.15,1.69-.33.39-.87.16-1.31.23-1.58-2.45-3.51-4.67-4.95-7.21a8.6,8.6,0,0,1-.52-1.45c1.92-.41,2.88-1.77,3.69-3.43a35.41,35.41,0,0,0,2.94-9.87,63.17,63.17,0,0,1,3.81-13.09c.49-1.21.94-2.43,1.33-3.68a102.23,102.23,0,0,1,3.94-10,15,15,0,0,0,1.16-4.31c.05-.38,0-.88.39-1,1.83-.61,1.93-2.3,2.42-3.75a12.26,12.26,0,0,1,1,3.63A13.19,13.19,0,0,0,52.38,113.36Z"/><path class="cls-13" d="M139.54,185.63c-1.61-1-2.49-2.63-3.69-4-2-2.23-3.86-4.55-5.75-6.85a34.88,34.88,0,0,1-4.52-6.55c-2-3.92-4.62-7.36-7.09-10.94-.22-.32-.45-.63-.66-1-1-1.49-1-1.51.51-2.53a3.08,3.08,0,0,0,2.3-.74,4.06,4.06,0,0,1,3.59-.78c-1.38,1.16-1.44,1.48-.43,2.84,1.94,2.6,3.78,5.28,5.87,7.75a40.19,40.19,0,0,0,4.35,3.87c.25.21.6.34.77.59,1.58,2.38,4,3.84,6.06,5.71a24.88,24.88,0,0,1,5.78,8.69C144.52,183.51,141.82,184.18,139.54,185.63Z"/><path class="cls-14" d="M93.61,114.17a2.26,2.26,0,0,0,1-.9,1.78,1.78,0,0,1,2.14-.87,3.14,3.14,0,0,1,.26-3.22c1.64-2.73,2.73-5.77,4.6-8.39a75.24,75.24,0,0,1,4.77-5.89c.64-.73,1.25-1.5,1.87-2.25,2.06-2.53,5-4,7.66-5.63,1-.63.74.41.88.88-.15,1.25.56,2.32.75,3.5a17.19,17.19,0,0,1-2.85,5.07c-4.32,5.25-7.14,11.3-9.59,17.56-.88,2.24-2.2,4.29-2.92,6.6a2.12,2.12,0,0,1-1.12,1.3A18.78,18.78,0,0,1,93.61,114.17Z"/><path class="cls-15" d="M63.42,53.78c-1-.87-2.13-.54-3.16-.37a14.5,14.5,0,0,0-7.71,3.47c-1.16,1.08-2.6,1.27-4.08,1.6-1.85.42-3.6-.08-5.39-.07a4,4,0,0,1-2.32-.94A3.56,3.56,0,0,0,37.61,57c-1.52.35-3,.76-4.54,1.1a11.72,11.72,0,0,0-5.56,3.07,7.72,7.72,0,0,1-3.72,2A42.81,42.81,0,0,1,30,51.35c3-1.72,6.46-1.82,9.79-2.35a.78.78,0,0,1,.56.12c3.78,2.5,8,1.09,11.95,1.07a23.9,23.9,0,0,0,7.62-1.62A9,9,0,0,1,63.18,48,8.34,8.34,0,0,0,67,47.45c.5-.23,1.27-.72,1.51.39-1.72,1.29-2.57,3.31-4,4.81C64.11,53,63.77,53.4,63.42,53.78Z"/><path class="cls-16" d="M101.07,121.93c2.58-5.67,4.84-11.49,7.59-17.09a35,35,0,0,1,4.16-6.58,25.27,25.27,0,0,0,3.11-4.71,4.64,4.64,0,0,1,1.62-2.15c1.37,1.22,2.52,2.7,4.22,3.52.44.21.17.52.06.8-.76-.21-1.29-.44-1.75.7a147.06,147.06,0,0,1-6,13.62c-2.06,4-3.87,8.08-6.3,11.86a2,2,0,0,0-.08,2.38A25.89,25.89,0,0,1,101.07,121.93Z"/><path class="cls-17" d="M68.51,47.84c-.49-.63-1-.2-1.36.08a3.42,3.42,0,0,1-2.57.68,15.22,15.22,0,0,0-5.74.87A31.76,31.76,0,0,1,49.44,51a47.89,47.89,0,0,0-6.45.11,1.84,1.84,0,0,1-2-.91c-.47-.88-1.16-.78-2-.6-3,.64-6,1.19-9,1.77a30.17,30.17,0,0,1,3.88-5.5c1.45.38,2.78-.35,4.15-.56,2.23-.35,4.46-.75,6.69-1.16a1.24,1.24,0,0,1,1.49.55c.44.74,1.09.78,1.84.79a54.67,54.67,0,0,0,12-1.24,13.47,13.47,0,0,1,6,0,24.61,24.61,0,0,0,4.59.86A3.21,3.21,0,0,1,68.51,47.84Z"/><path class="cls-18" d="M116.41,23.49c.36-.53.92-.39,1.42-.39,2.74,0,5.49-.16,8.21,0,2.56.19,5.17.13,7.62,1.11-.3.07-.69.07-.39.57s1.33.45,1.83,1.23a3.33,3.33,0,0,1-2.14,0,31.9,31.9,0,0,0-8.07-.93c-4-.21-8-.1-12.08-.13.61-.54,1.37-.25,2.06-.34s1.32.2,1.85-.35C117.69,23.62,116.35,23.83,116.41,23.49Z"/><path class="cls-19" d="M62.23,19.19c.68.48.54.9-.07,1.32-1.44,1-2.87,2-4.32,3-2.26,1.51-4.42,3.17-6.58,4.81-.82.63-1.71,1.17-2.52,1.81-.62.5-.74-.21-1.09-.35,4-3.75,8.56-6.68,13.06-9.72A5.78,5.78,0,0,1,62.23,19.19Z"/><path class="cls-20" d="M115.59,126.72c.07-.69.3-1,1.12-.84a9,9,0,0,0,3.61.45h0c.33.38.83.11,1.21.3H123c.91-.28,1.89.17,2.78-.27l7.45-.43a16.8,16.8,0,0,1-5.13,1.54,33.74,33.74,0,0,1-7.91.48A9,9,0,0,1,115.59,126.72Z"/><path class="cls-21" d="M156.42,20.35a11.93,11.93,0,0,1-4.61-2.51,2.26,2.26,0,0,1,2.95-.19c.39.29.93.51,1.15,0,.41-1.06.94-.82,1.63-.35.5.34,1,.55,1.56,0,.1.06.3.17.3.18a5.76,5.76,0,0,0-.13,3.08c-.63.42-1.13,0-1.65-.19S156.81,19.83,156.42,20.35Z"/><path class="cls-22" d="M16.23,104.75c.3.77-.54,1.87.7,2.4.3.12.07.28-.1.36-.54.25-.41.5-.1.88a3.37,3.37,0,0,1,.69,2.19,26.11,26.11,0,0,0,.77,6.16,7.32,7.32,0,0,1,0,1.75c-1.49-.77-2.29-1.86-1.78-3.64.09-.35-.07-.74,0-1.14a8,8,0,0,0-.29-3.27A9.6,9.6,0,0,1,16.23,104.75Z"/><path class="cls-23" d="M177.24,135c-.32,2-1.83,3.36-2.82,5-.16.28-.49.52-.79.18-.47-.53-.92,0-1.59.13.53-1.29.47-2.6,1.73-3.27,0,.45.23.65.53.2.57-.86,1-1.77,1.59-2.65.2-.31.26-.76.72-.87C177.1,134,176.66,134.73,177.24,135Z"/><path class="cls-13" d="M148.56,181.34c2.32-1,4.27-2.84,7-2.8l-5.4,2.74C149.64,181.54,149.11,181.85,148.56,181.34Z"/><path class="cls-19" d="M46.85,30.53c.32.57.76,1.24,0,1.7s-1.3,1.45-2.36.64A9.05,9.05,0,0,1,46.85,30.53Z"/><path class="cls-18" d="M135.62,25.06c1,.08,2.09-.41,2.77.76A5.49,5.49,0,0,1,135.62,25.06Z"/><path class="cls-10" d="M80.66,36.86a6.54,6.54,0,0,1,1.52-1.2c.35.55.28,1-.39,1.15A6.07,6.07,0,0,1,80.66,36.86Z"/><path class="cls-18" d="M137.22,26.32c.26.05.53.16.47.45s-.37.24-.61.23-.39-.05-.38-.27S136.94,26.33,137.22,26.32Z"/><path class="cls-9" d="M135.64,98l-1.54.06C134.59,97.48,135.11,97.64,135.64,98Z"/><path class="cls-16" d="M123.43,96.49c-.41,0-.85.09-1.14-.33C122.71,96.14,123.15,96.06,123.43,96.49Z"/><path class="cls-15" d="M62.16,56c0-.42,0-.87.43-1.13C62.61,55.32,62.65,55.76,62.16,56Z"/><path class="cls-18" d="M133.66,24.26c.42,0,.9-.1,1.12.43C134.36,24.66,133.92,24.71,133.66,24.26Z"/><path class="cls-24" d="M89.21,192.12a1.08,1.08,0,0,1,1.11-.15,8,8,0,0,0,3.68.29c2.49-.32,5-.12,7.49-.21s4.91.23,7.38.23a10.41,10.41,0,0,0,3.77-.74c1.2-.47,2.51.11,4-.57-.57,1.22-1.69,1-2.24,1.74s-1.62.24-2.49-.11a2.82,2.82,0,0,0-1.71.11c-1.6.5-3.23.27-4.85.41-.61.06-1.82-.57-1.5,1.11.1.52-1.75.65-2.33,0a3.26,3.26,0,0,0-3.14-1,33.3,33.3,0,0,1-6.16-.27c-.7,0-1.41-.19-2.12-.23C89.71,192.66,89.31,192.63,89.21,192.12Z"/><path class="cls-25" d="M64.78,184.45c-2.15-.23-8.1-3.37-9.3-4.93C59.33,180.18,61.9,182.61,64.78,184.45Z"/><path class="cls-26" d="M116.41,23.49c.54.07,1.12-.18,1.65.22-.27.67-.86.51-1.34.6A.75.75,0,0,1,116.41,23.49Z"/><path class="cls-26" d="M155.58,23.71a1.22,1.22,0,0,1-1.22-.37C154.92,23.24,154.92,23.24,155.58,23.71Z"/><path class="cls-26" d="M172.37,162.55c-.25.54-.45,1.09-.83.9s.06-.53.27-.74S172,162.64,172.37,162.55Z"/><path class="cls-26" d="M169.77,135.35a1.85,1.85,0,0,1-.1.54c-.1.18-.16.55-.5.29,0,0,.09-.33.19-.46a3.08,3.08,0,0,1,.44-.35Z"/><path class="cls-9" d="M125.81,126.36c-.88.62-1.85.25-2.78.27C123.91,126.07,124.88,126.43,125.81,126.36Z"/><path class="cls-9" d="M134.32,99.19c-.07.07-.15.21-.22.2-.23,0-.5-.08-.49-.4,0,0,.21-.12.32-.12A.36.36,0,0,1,134.32,99.19Z"/><path class="cls-9" d="M124.26,125.3c.08.09.21.17.21.26a.25.25,0,0,1-.37.24.35.35,0,0,1-.12-.32C124,125.4,124.16,125.36,124.26,125.3Z"/><path class="cls-9" d="M121.52,126.63c-.45.06-.89.15-1.21-.3A1.47,1.47,0,0,1,121.52,126.63Z"/><path class="cls-16" d="M122.65,98c-.91-.17-1.44-.28-1.76-1C121.7,96.71,122.05,97.24,122.65,98Z"/><path class="cls-8" d="M48.09,112.39c.06-.1.14-.3.19-.3.39.06.51.36.5.71,0,.11-.13.31-.18.3C48.22,113,48.11,112.74,48.09,112.39Z"/><path class="cls-8" d="M49.12,115.11c.11,0,.28.07.31.15s-.08.21-.13.32c-.1,0-.27-.08-.3-.15S49.07,115.22,49.12,115.11Z"/></svg>