<?xml version="1.0" encoding="utf-8"?><svg xmlns="http://www.w3.org/2000/svg" xmlns:xlink="http://www.w3.org/1999/xlink"><defs><svg fill="currentColor" viewBox="0 0 32 32" id="src--assets--icons--about-us" xmlns="http://www.w3.org/2000/svg"><g data-name="Layer 2"><path d="M25.861 29.35H16C8.28 29.35 2 23.361 2 16S8.28 2.65 16 2.65 30 8.639 30 16a12.892 12.892 0 0 1-3.316 8.62l.8.8a2.3 2.3 0 0 1-1.627 3.926zM16 4.65C9.383 4.65 4 9.742 4 16s5.383 11.35 12 11.35h9.861a.3.3 0 0 0 .213-.512l-1.5-1.5a1 1 0 0 1 .011-1.425A10.978 10.978 0 0 0 28 16c0-6.258-5.383-11.35-12-11.35z"/><path d="M17.5 22h-3a1 1 0 0 1 0-2h3a1 1 0 0 1 0 2z"/><path d="M16 22a1 1 0 0 1-1-1v-6.134A1 1 0 0 1 15.5 13h.5a1 1 0 0 1 1 1v7a1 1 0 0 1-1 1z"/><circle cx="16" cy="10" r="1.5"/></g></svg><svg fill="currentColor" viewBox="0 0 100 100" id="src--assets--icons--customer-support" xmlns="http://www.w3.org/2000/svg"><path d="M84.234 78.581C82.22 72.587 74.193 68.835 68.47 66.32c-2.242-.982-8.449-2.648-9.195-5.471-.267-1.017-.231-1.976-.012-2.895a5.596 5.596 0 0 1-1.057.105h-3.729a5.402 5.402 0 0 1-5.396-5.397c0-2.973 2.42-5.39 5.396-5.39h3.729c1.232 0 2.4.417 3.342 1.161a23.997 23.997 0 0 0 3.955-.866c1.631-3.417 2.903-7.503 3.188-11.02 1.217-15.048-8.008-23.852-21.235-22.33-9.617 1.107-15.362 8.278-15.983 17.51-.628 9.41 2.861 16.36 6.567 21.458 1.623 2.229 3.328 3.662 3.066 6.348-.304 3.176-3.7 4.061-6.129 5.037-2.878 1.156-5.978 2.91-7.442 3.721-5.043 2.785-10.578 6.139-11.822 10.727-2.755 10.168 6.549 13.248 14.23 14.67C36.535 94.904 43.968 95 50.082 95c11.059 0 30.945-.443 34.152-8.756.912-2.359.521-6.118 0-7.663z"/><path d="M60.566 51.143a2.818 2.818 0 0 0-2.358-1.283h-3.729a2.81 2.81 0 1 0 0 5.618h3.729a2.786 2.786 0 0 0 2.479-1.519c5.199-.409 9.721-1.997 12.895-4.342.729.47 1.591.745 2.521.745h.234a4.687 4.687 0 0 0 4.688-4.693v-9.368a4.673 4.673 0 0 0-2.672-4.224C77.665 17.034 65.212 5 50 5S22.333 17.034 21.648 32.077a4.67 4.67 0 0 0-2.674 4.224v9.368a4.687 4.687 0 0 0 4.684 4.693h.237a4.688 4.688 0 0 0 4.687-4.693v-9.368a4.677 4.677 0 0 0-2.608-4.192C26.643 19.434 37.161 9.331 50 9.331c12.834 0 23.357 10.103 24.023 22.778a4.68 4.68 0 0 0-2.605 4.192v9.368c0 .622.121 1.201.334 1.742-2.732 1.955-6.709 3.348-11.186 3.732z"/></svg><svg fill="currentColor" data-name="Layer 1" viewBox="0 0 100 100" id="src--assets--icons--phone" xmlns="http://www.w3.org/2000/svg"><path d="M15 10.37a3.72 3.72 0 0 0 0 5.26l6.08 6.09V11.18l-.82-.81a3.8 3.8 0 0 0-5.26 0zm11.07 44.9a3.74 3.74 0 0 0-2.78-4.47l-7.19-1.67a3.72 3.72 0 1 0-1.68 7.25l7.18 1.67a3.73 3.73 0 0 0 4.47-2.78zM24 47.8a3.73 3.73 0 0 0 4.45-2.8 3.69 3.69 0 0 0-.45-2.8 3.75 3.75 0 0 0-2.32-1.66l-11.3-2.62a3.72 3.72 0 0 0-4.47 2.78 3.74 3.74 0 0 0 2.78 4.47zm-5.34-19.6A3.74 3.74 0 0 0 15 31.08a3.72 3.72 0 0 0 2.78 4.47l8.56 2a3.72 3.72 0 1 0 1.68-7.25l-8.55-2a3.5 3.5 0 0 0-.81-.1z"/><path d="M56.77 74.34a4 4 0 0 0 4-4V8.8a4 4 0 0 0-4-4H28.08a4 4 0 0 0-4 4v1.14l.29.29-.29.29V26.2l4.63 1.08a6.72 6.72 0 0 1 2 12.25 6.33 6.33 0 0 1-.68.36 4.89 4.89 0 0 1 .45.64 6.68 6.68 0 0 1-2.84 9.61 6.14 6.14 0 0 1 .46.64 6.69 6.69 0 0 1-4 10v9.45a4 4 0 0 0 4 4h28.67z"/><path d="m81.09 65.06-3.15-16.29a27.37 27.37 0 0 1-7.73-19.12v-3.59a3.52 3.52 0 0 0-6.46-2v46.3a7 7 0 0 1-7 7H36.42l6.48 6.48 1.65.32L59.17 87a1.45 1.45 0 0 1 .77.41l8.41 8.41 21.58-21.58-8.41-8.41a1.56 1.56 0 0 1-.43-.77z"/></svg><svg fill="currentColor" viewBox="0 0 209.31 19.08" id="src--assets--icons--pronto-border" xmlns="http://www.w3.org/2000/svg"><path d="M209.31 0v19.08H0v-2C20.31 18 135.9 21.38 209.31 0Z"/></svg></defs></svg>